<?xml version="1.0" encoding="utf-8"?>
<!-- Generator: Adobe Illustrator 16.0.4, SVG Export Plug-In . SVG Version: 6.00 Build 0)  -->
<!DOCTYPE svg PUBLIC "-//W3C//DTD SVG 1.1//EN" "http://www.w3.org/Graphics/SVG/1.1/DTD/svg11.dtd">
<svg version="1.1" id="Layer_1" xmlns="http://www.w3.org/2000/svg" xmlns:xlink="http://www.w3.org/1999/xlink" x="0px" y="0px"
	 width="595.28px" height="841.89px" viewBox="0 0 595.28 841.89" enable-background="new 0 0 595.28 841.89" xml:space="preserve">
<circle fill="none" stroke="#000000" stroke-miterlimit="10" cx="107.175" cy="123.842" r="77.373"/>
<rect x="226.487" y="111.086" fill="none" stroke="#000000" stroke-miterlimit="10" width="82.204" height="25.512"/>
<rect x="52.996" y="161" fill="none" stroke="#000000" stroke-miterlimit="10" width="108.357" height="5.492"/>
<rect x="52.996" y="80.334" fill="none" stroke="#000000" stroke-miterlimit="10" width="108.357" height="5.492"/>
<circle fill="none" stroke="#000000" stroke-miterlimit="10" cx="267.589" cy="123.842" r="77.373"/>
<line fill="none" stroke="#000000" stroke-miterlimit="10" x1="199.509" y1="101.675" x2="193.935" y2="101.675"/>
<line fill="none" stroke="#000000" stroke-miterlimit="10" x1="199.509" y1="146.008" x2="193.935" y2="146.008"/>
<line fill="none" stroke="#000000" stroke-miterlimit="10" x1="199.509" y1="101.675" x2="199.509" y2="146.008"/>
<line fill="none" stroke="#000000" stroke-miterlimit="10" x1="335.635" y1="101.675" x2="341.273" y2="101.675"/>
<line fill="none" stroke="#000000" stroke-miterlimit="10" x1="335.635" y1="146.009" x2="341.273" y2="146.009"/>
<line fill="none" stroke="#000000" stroke-miterlimit="10" x1="335.635" y1="101.675" x2="335.635" y2="146.009"/>
<line fill="none" stroke="#000000" stroke-miterlimit="10" x1="245.423" y1="50.485" x2="245.423" y2="57"/>
<line fill="none" stroke="#000000" stroke-miterlimit="10" x1="289.756" y1="50.485" x2="289.756" y2="57"/>
<line fill="none" stroke="#000000" stroke-miterlimit="10" x1="289.756" y1="57" x2="245.423" y2="57"/>
<line fill="none" stroke="#000000" stroke-miterlimit="10" x1="289.755" y1="191.635" x2="289.755" y2="198.131"/>
<line fill="none" stroke="#000000" stroke-miterlimit="10" x1="245.421" y1="192.137" x2="245.421" y2="198.633"/>
<line fill="none" stroke="#000000" stroke-miterlimit="10" x1="289.755" y1="191.635" x2="245.421" y2="191.635"/>
<circle fill="none" stroke="#000000" stroke-miterlimit="10" cx="428.015" cy="123.842" r="77.373"/>
<circle fill="none" stroke="#000000" stroke-miterlimit="10" cx="428.016" cy="123.842" r="70.866"/>
<text transform="matrix(1 0 0 1 226.4873 106.5)" font-family="'MyriadPro-Regular'" font-size="12">29*9mm</text>
<text transform="matrix(1 0 0 1 55 158.5)" font-family="'MyriadPro-Regular'" font-size="12">38*2mm</text>
<text transform="matrix(1 0 0 1 378 167)" font-family="'MyriadPro-Regular'" font-size="12">50mm</text>
<text transform="matrix(1 0 0 1 469 198.6328)" font-family="'MyriadPro-Regular'" font-size="12">55mm</text>
<text transform="matrix(1 0 0 1 245.5 188.5)" font-family="'MyriadPro-Regular'" font-size="12">15mm</text>
</svg>
