<?xml version="1.0" encoding="utf-8"?>
<!-- Generator: Adobe Illustrator 16.0.4, SVG Export Plug-In . SVG Version: 6.00 Build 0)  -->
<!DOCTYPE svg PUBLIC "-//W3C//DTD SVG 1.1//EN" "http://www.w3.org/Graphics/SVG/1.1/DTD/svg11.dtd">
<svg version="1.1" id="Layer_1" xmlns="http://www.w3.org/2000/svg" xmlns:xlink="http://www.w3.org/1999/xlink" x="0px" y="0px"
	 width="595.28px" height="841.89px" viewBox="0 0 595.28 841.89" enable-background="new 0 0 595.28 841.89" xml:space="preserve">
<rect x="186.503" y="338.625" fill="none" stroke="#000000" stroke-miterlimit="10" width="90.709" height="51.023"/>
<path fill="none" stroke="#000000" stroke-miterlimit="10" d="M189.336,163.297V79.262c0-14.889,19.019-26.937,42.521-26.937
	c23.502,0,42.52,12.048,42.52,26.937v84.035c0,80.059,18.426,115.923,18.426,144.146v113.386c0,27.341-18.425,64.472-18.425,144.146
	V748.17c0,22.88-19.018,41.395-42.521,41.395c-23.502,0-42.52-18.515-42.52-41.395l0-183.194
	c0-79.675-18.425-116.806-18.425-144.146V307.443c0-28.224,18.425-64.088,18.425-144.146"/>
<path fill="none" stroke="#000000" stroke-miterlimit="10" d="M333.423,163.296V79.262c0-14.889,19.019-26.937,42.521-26.937
	c23.502,0,42.52,12.048,42.52,26.937v84.035c0,80.059,18.426,115.923,18.426,144.146v113.385c0,27.342-18.425,64.473-18.425,144.146
	V748.17c0,22.879-19.018,41.395-42.521,41.395s-42.521-18.516-42.521-41.395c0,0,0-183.195,0.001-183.195
	c0-79.674-18.425-116.805-18.425-144.146V307.443c0-28.224,18.426-64.088,18.426-144.146"/>
</svg>
