<?xml version="1.0" encoding="utf-8"?>
<!-- Generator: Adobe Illustrator 16.0.4, SVG Export Plug-In . SVG Version: 6.00 Build 0)  -->
<!DOCTYPE svg PUBLIC "-//W3C//DTD SVG 1.1//EN" "http://www.w3.org/Graphics/SVG/1.1/DTD/svg11.dtd">
<svg version="1.1" id="Layer_1" xmlns="http://www.w3.org/2000/svg" xmlns:xlink="http://www.w3.org/1999/xlink" x="0px" y="0px"
	 width="595.28px" height="841.89px" viewBox="0 0 595.28 841.89" enable-background="new 0 0 595.28 841.89" xml:space="preserve">
<circle fill="none" stroke="#000000" stroke-miterlimit="10" cx="501.998" cy="147.639" r="56.693"/>
<rect x="6.65" y="23.845" fill="none" stroke="#000000" stroke-miterlimit="10" width="581.979" height="248.74"/>
<rect x="493.996" y="232.678" fill="none" stroke="#000000" stroke-miterlimit="10" width="15.268" height="28.346"/>
<rect x="493.494" y="34.253" fill="none" stroke="#000000" stroke-miterlimit="10" width="17.01" height="28.347"/>
<rect x="388.612" y="135.025" fill="none" stroke="#000000" stroke-miterlimit="10" width="28.346" height="17.008"/>
<rect x="6.65" y="281.656" fill="none" stroke="#000000" stroke-miterlimit="10" width="220.1" height="248.739"/>
<rect x="132.854" y="490.488" fill="none" stroke="#000000" stroke-miterlimit="10" width="15.269" height="28.346"/>
<rect x="132.854" y="292.064" fill="none" stroke="#000000" stroke-miterlimit="10" width="15.271" height="28.347"/>
<rect x="26.732" y="392.836" fill="none" stroke="#000000" stroke-miterlimit="10" width="28.348" height="17.008"/>
<rect x="14.176" y="547.945" fill="none" stroke="#000000" stroke-miterlimit="10" width="566.929" height="28.347"/>
<rect x="14.176" y="583.24" fill="none" stroke="#000000" stroke-miterlimit="10" width="566.929" height="28.347"/>
<rect x="14.176" y="621.055" fill="none" stroke="#000000" stroke-miterlimit="10" width="566.929" height="28.347"/>
<rect x="243.349" y="281.656" fill="none" stroke="#000000" stroke-miterlimit="10" width="220.1" height="248.738"/>
<rect x="369.553" y="490.488" fill="none" stroke="#000000" stroke-miterlimit="10" width="15.269" height="28.346"/>
<rect x="369.552" y="292.065" fill="none" stroke="#000000" stroke-miterlimit="10" width="15.271" height="28.347"/>
<rect x="263.431" y="392.837" fill="none" stroke="#000000" stroke-miterlimit="10" width="28.348" height="17.008"/>
<ellipse fill="none" stroke="#000000" stroke-miterlimit="10" cx="376.318" cy="401.341" rx="0.869" ry="0"/>
<rect x="509.264" y="355.263" fill="none" stroke="#000000" stroke-miterlimit="10" width="28.347" height="62.362"/>
<rect x="92.622" y="387.167" fill="none" stroke="#000000" stroke-miterlimit="10" width="15.269" height="28.346"/>
<rect x="173.087" y="387.167" fill="none" stroke="#000000" stroke-miterlimit="10" width="15.269" height="28.346"/>
<rect x="509.264" y="424.264" fill="none" stroke="#000000" stroke-miterlimit="10" width="28.347" height="62.361"/>
<text transform="matrix(1 0 0 1 14.1758 263.9995)" font-family="'MyriadPro-Regular'" font-size="12">200*80mm</text>
<text transform="matrix(1 0 0 1 388.6123 131.9995)" font-family="'MyriadPro-Regular'" font-size="12">10*6</text>
<text transform="matrix(1 0 0 1 484.999 152.0332)" font-family="'MyriadPro-Regular'" font-size="12">40mm</text>
<text transform="matrix(1 0 0 1 510.5039 348.666)" font-family="'MyriadPro-Regular'" font-size="12">22*10</text>
<text transform="matrix(1 0 0 1 17.6641 572)" font-family="'MyriadPro-Regular'" font-size="12">200*10</text>
<text transform="matrix(1 0 0 1 10.9976 524.667)" font-family="'MyriadPro-Regular'" font-size="12">75*80</text>
<text transform="matrix(1 0 0 1 248.6636 524.667)" font-family="'MyriadPro-Regular'" font-size="12">75*80</text>
<text transform="matrix(1 0 0 1 263.4307 387.167)" font-family="'MyriadPro-Regular'" font-size="12">10*6</text>
<text transform="matrix(1 0 0 1 26.7324 386.4443)" font-family="'MyriadPro-Regular'" font-size="12">10*6</text>
</svg>
